<svg id="Layer_1" data-name="Layer 1" xmlns="http://www.w3.org/2000/svg" viewBox="0 0 2853.8 800"><defs><style>.cls-1{fill:#282727;}</style></defs><title>j-crew</title><path class="cls-1" d="M-330.41-45.36c9.78-1.69,19.65-3.75,29.66-3.06,19.63.27,39.29,0,58.94.06,47.64,4.7,93.49,21.14,135.47,43.78,6.28,3.08,12.06,7.19,18.68,9.53C-81.8,3.17-78.07-2.78-72.06-4c3,1.83,1.71,5.9,2.38,8.77C-68,38-63.23,70.91-58.93,103.86A18,18,0,0,1-60,114.76c-3.29-.13-6.2-1.26-7.17-4.66-12.29-25.27-27.26-49.37-46.16-70.24C-138.91,10.75-171.68-12.9-209.08-24c-28-8.9-57.86-10-86.95-7.17-44.22,4-88.49,20.09-121,51.08-35.29,32.57-54.11,79.17-61.82,125.78-7.59,48.74-6.3,99.2,6.34,147,11.51,43.95,33.24,85.56,64.74,118.51,21.84,21.9,47.7,40.28,76.88,51,39.42,15.32,83.24,15.68,124.3,7.36,38.41-8,74.83-26.83,102-55.29C-90,399.88-78.26,383-67.45,365.73c2.76-3.92,4.83-8.92,9.68-10.67,2,4.21,1.56,8.94.53,13.36-3.71,15.92-9.11,31.45-11.51,47.66-1.07,5.67-1.26,11.57-3.35,17-4.24,5.46-10.24,9.27-15.87,13.19-37.18,23.91-80.17,37.5-123.59,44.5-58.2,8.49-119.31,7.5-175-13.15a231.09,231.09,0,0,1-78.39-47.85c-28.23-26.58-49-60.68-61.09-97.43-18.13-55-18.65-114.76-7.15-171.16,9.84-47.64,31.41-93.17,63.93-129.53,36-40.18,85.83-67.35,138.83-77Z" transform="translate(1076.87 49.24)"/><path class="cls-1" d="M1027.28-42.43c.25-5.78,7.1-6.54,11.57-6.75,15.83-.32,31.56,1.73,47.37,2.23,29.21,1.6,58.43-.53,87.6-2.23,3.08-.06,6.38-.19,9.27,1.29,3.16,2.32,3.18,8-.93,9.23-8.43,3.08-18.7,4.81-23.48,13.39-5.9,10.08-1.94,21.84.86,32.23,9.74,38.95,27.3,75.23,41.72,112.54,32.82,79.81,65.07,159.89,100.21,238.74,5.25,10.52,9.15,23.48,20.78,28.69a26.73,26.73,0,0,0,9.53-12.56c17.79-41.51,35.52-83.07,52.19-125,4-10.94,9.25-21.63,11.09-33.18-3.16-13.2-8.7-25.7-13.15-38.49q-22.49-58.93-46.16-117.39C1328,42,1321.52,23.06,1311.51,5.82c-7.57-13.19-15.92-27.3-30.19-34.09-11.68-5.1-24.72-5.08-36.91-8.16-3.9-.63-5.82-4.57-4.95-8.18,2.49-4.3,8-4.38,12.44-4.6,22.3-.3,44.35,3.94,66.63,4.55,26.84,1.52,53.63-2.53,80.46-2.4.44,3.48,1.52,8.1-2.42,10-8.24,4.2-18.93,6.32-23.63,15.16-5.4,12.31-1.5,26,2.09,38.28,10.58,35,25,68.63,38.36,102.57,2.55,6.3,3.75,15.41,11.55,17.31,7.42,1.16,10.37-7.17,12.84-12.54C1452.09,88,1467.11,52.45,1479.64,16c2.91-12.46,4.68-27.26-2.72-38.55-10-10.52-25.55-11.05-37.67-17.94.78-2.76.21-7.71,4.45-7.4,14.16-1.56,28,3.61,42.11,3.54,22.89-.27,45.74-2.74,68.65-2.76,6.58-1.48,7.1,8.39,2,10.25-7.4,3.37-15.85,4.59-22.43,9.65-7.92,5.21-13.11,13.45-17.29,21.75-23,50.1-44.71,100.8-64.48,152.27-4.41,15.92-13.58,32.88-6.85,49.47,5,14.71,10.69,29.17,16.76,43.44,17.33,41.65,35.92,82.76,54.72,123.74,5,10.67,9.68,21.82,17.6,30.75,1.82,2.3,6.28,3.6,8,.44,11.49-15.89,18.55-34.42,26.45-52.23,16.06-36.83,30.92-74.18,46.4-111.25a20,20,0,0,0,5.17-12.92c15.51-38.81,31.26-77.53,46.59-116.42,12-30.56,25.33-60.79,33-92.79,3-10.69-.65-23.14-9.68-29.83-11.11-6.85-24.07-9.53-36.22-13.79-3.1-1.45-7.76-5.69-4.13-8.92,7.88-2,16.11.17,24.12.55,29.11,2.57,58.35,1.12,87.5.57,5.14.11,10.92-.93,15.26,2.57v7.63C1765-26.07,1751.37-21,1744-9c-12,19.82-21,41.31-30.31,62.52-34,78.67-67.51,157.57-101.09,236.44-29.26,68.27-57.76,136.85-87.6,204.85-.65,5.71-8.81,6-10.1.57C1482.14,417.5,1448.42,340,1416.19,262c-1.52-4.77-8.18-7.84-11.11-2.53-9.67,14.12-14.59,30.8-21.61,46.29-24,58.37-46.69,117.24-69.92,175.89-2.11,5.42-3.31,11.3-6.49,16.23-3.42,4.28-7.82-1.45-8.7-4.93-4.62-14.93-11.43-29.05-17-43.63-46.58-114-93.57-227.76-139.61-341.94-15.53-40.11-29.11-81.81-54.25-117.2-11-15.28-29.51-21.8-47.18-25.51-4.57-1.75-12.21-.86-13-7.12Z" transform="translate(1076.87 49.24)"/><path class="cls-1" d="M863.75-45.11c28.67,0,57.34-2.89,86-1.54.59,1.92,1.22,3.84,1.86,5.77-4.72,26.39-6.39,53.23-7.21,80,0,4.13-1.22,8.09-2.47,12-2.24.13-4.51.25-6.7.32-1.62-16.42-.76-34.46-10.69-48.59C915.41-11,898.57-16.59,883-18.84c-42.48-4.51-85.29-3.23-127.91-2-10,.42-21.23.55-29.07,7.65-6.09,6.39-8,15.51-8.71,24-3.18,47.41-2.32,95-2.25,142.45,1,12.5.25,26.12,7,37.21,6.09,8.83,18.09,8,27.55,8.09,33.22-1,66.61,1.16,99.68-3,15.41-2.17,31.66-6.11,43.13-17.33,8.35-8.11,12.54-19.5,14.23-30.8.08-3,2.34-5,4.28-7.06,5,2.4,2.95,8.64,3.33,13-2.06,38.72-2.91,77.59.11,116.29.53,6.51,2,13,1.16,19.54-3.1-.23-6.91-.78-7.12-4.66-4.38-14.73-8.73-29.93-17.69-42.62-11-12.18-28.5-14.06-43.93-15.41-35.22-2.4-70.59-.91-105.8.7-4.68-1.14-7.48,6.13-11.55,1.31-9.87,2.26-12.88,13.11-12.59,22q-.17,60.82,0,121.63c.78,22.34,1.43,45.09,8.26,66.57,3,8.92,11.66,14.57,20.43,16.74,18,5,37,3,55.36,1.77,24-1.5,47.64-6,71.44-9.21,23-3.69,46.31-8.31,67.41-18.66,18.19-9.36,34.7-22.89,45.34-40.56,2.4-3.46,5-8.52,10.07-7.74q3.76,2,2.45,6.15c-7.29,27.11-20.79,52.64-40.35,72.93C946,471.52,932.53,482.71,916,484.76c-33.26,2.17-66.59-.15-99.83-1.87-31.07-1.83-62.21-1.81-93.32-1.88-33.07.65-65.75,7.48-98.86,6.91-5.78-.57-13.6-.84-16.19-7.15l2-3c13.51-2,29.07-1.22,39.5-11.76,15-16.51,17.33-40.14,17.81-61.51.3-52.66,1.1-105.31,1.18-158,.49-74.89-2.3-149.75-5.1-224.56C662.52-2.61,644.08-25,620.32-30.81c-7.67-2.45-16.06-.49-23.54-3.71-.38-3.54-.36-8.09,4.11-8.81,18.3-2.91,36.85-.49,55.27-.78,69.2-.44,138.41,1.75,207.59-1Z" transform="translate(1076.87 49.24)"/><path class="cls-1" d="M-1021.81-36.8c-.13-5,5.4-6.91,9.49-7.15,15.32-1.27,30.52,2.11,45.8,2.76,30.38,2.89,60.94,1.27,91.36-.11,8.73.17,17.9-1.67,26.22,1.88-.84,2.95-.13,6.79-2.59,9.1-8.92,4.74-20.15,5.06-27.63,12.44C-889.93-6.95-894.09,8.94-893.9,24c.69,93.84.82,187.67,1.14,281.51-.19,79.28,1.43,158.73-6.22,237.75-3.25,32.84-7.82,65.85-18.4,97.22-10.08,28.73-28,54.36-50.3,74.93-21.06,20.83-49.71,33.35-79.22,35.39h-14.4c-8.68-2.11-16-9.61-15.54-18.95-.13-15.58,1.1-33.94,14-44.65,2.63,1,5.75,1.18,7.78,3.27,6.53,6.32,11.72,14.14,19.5,19.06,12.14,7.8,29.13,9,41.1.21,14.46-10.39,23-26.87,29.2-43.11,12.2-32.57,15.64-67.69,16-102.25.13-177-.38-354,.84-531,.59-16.36-3.92-34.15-17-45-14.27-12.27-33.94-13.51-51.1-19.35-2.36-1.07-5.84-2.68-5.36-5.82Z" transform="translate(1076.87 49.24)"/><path class="cls-1" d="M79.83-43.12c55.75,4.07,111.63.34,167.35-2.13C286-47,325.74-38.23,359-17.79c24.73,16.17,39.74,43.86,46,72.17A131.42,131.42,0,0,1,394.33,141c-15,30.18-40.22,54.32-69,71.37-3.88,2.05-7.15,5-8.73,9.25,10,21.29,24,40.32,36.62,60.06,27,38.93,52.78,78.69,80.4,117.18,16.9,23.9,36.11,46.42,59,64.86,9.68,8,22.45,10.18,34.3,13.24,2.49.34,4.51,1.83,6.55,3.25l-1.9,5.31c-11.38,7.53-25.59,7.67-38.74,6.89-21.75-1.54-44.81-4.62-63.11-17.39-25.13-18.83-43.19-45.11-60-71.25-23.4-35.9-46.58-72-68.59-108.73-9.59-18.55-23.42-34.48-38.39-48.86-9.38-6.89-21.44-8.41-32.73-9-15.39-.84-31.05-3.58-46.31-.36-7.84,2-11.66,10-13,17.33-3.1,17.62-1.6,35.56-1.71,53.33.76,25.4.51,50.84,1.07,76.24,1,19.73,1.81,39.94,8.87,58.6,4.79,13.18,15.39,23.92,28.18,29.55a112.84,112.84,0,0,0,32.29,9c6.49,1.07,13.26,1,19.48,3.39,1.69,1.79.53,4.43.65,6.6a48.57,48.57,0,0,1-10.62.74c-29.11-1.35-58.18-4-87.33-4.7-30.54.36-61,3.06-91.36,5.92a20.7,20.7,0,0,1-6.6-1.48c-.06-2.4-.63-4.93.44-7.19,13.55-6.17,28.73-10.5,39.42-21.48,10.2-11,12.25-26.64,13.53-41,6.51-114.94,1.64-230.06-.21-345.06-.78-22.28-.87-44.81-5.4-66.72-2.38-11.8-9-23.74-20.38-28.81-13.74-5.9-28.69-8.14-42.6-13.58A14.86,14.86,0,0,1,48.87-41c9.89-3.79,20.62-2.23,31-2.13Zm127.4,19.37c-10.06.67-21,2.44-28.56,9.7-7.52,7.42-9.42,18.49-9.68,28.62q-.6,82.71-.34,165.39c.23,8.94.1,19.39,7.19,26,8.28,7.88,20.53,7.4,31.13,8.64,26.88,1.22,54.76,3.54,80.63-5.58,25.42-8.18,47.43-27.28,57.9-52,11.34-25.44,10.9-54.51,5.48-81.34C345.3,47.26,329.7,20.37,306,3.25c-28.08-21-64.33-27.95-98.78-27Z" transform="translate(1076.87 49.24)"/><path class="cls-1" d="M-772.21,459.7a600.39,600.39,0,0,1,45.89-50.21,652.18,652.18,0,0,1,44.41,48.69c-13.68,17.22-29.24,32.86-44.22,49-16.44-14.69-31.22-31.16-46.08-47.43Z" transform="translate(1076.87 49.24)"/></svg>