<?xml version="1.0" encoding="utf-8"?>
<!-- Generator: Adobe Illustrator 19.1.0, SVG Export Plug-In . SVG Version: 6.00 Build 0)  -->
<svg version="1.1" id="Layer_1" xmlns="http://www.w3.org/2000/svg" xmlns:xlink="http://www.w3.org/1999/xlink" x="0px" y="0px"
	 viewBox="0 0 655.6 156.8" style="enable-background:new 0 0 655.6 156.8;" xml:space="preserve">
<style type="text/css">
	.st0{fill:#000000;}
</style>
<g>
	<g>
		<path class="st0" d="M550.3,153.9c3.8,1.4,10.2,2.7,18.4,2.7c16.7,0,30.1-6.8,38.3-24.1l48.4-101h-23.2l-31.8,68.9l-32.2-68.9h-23.2l36.7,75.7
			c4,7.9,4.9,12,4.9,16.3c0,7-5.8,14.3-23.2,14.3c-5.6,0-10.2-1.4-13-2V153.9z"/>
		<path class="st0" d="M474.2,125.2h21.2V77.4c0.2-6.5,0.2-24.4,27.2-24.6c7,0,10.9,1.2,13,1.7V31.6c-2.2-0.3-4.4-0.3-7.5-0.3
			c-18.3,0-27.5,9.2-32.1,16.7h-0.5V31.5h-21.2V125.2z"/>
		<path class="st0" d="M408.3,110.1c-19,0-29.9-11.8-29.9-31.3c0-21.5,13.7-30.4,29.9-30.4c16.1,0,29.9,8.9,29.9,30.4
			C438.2,98.4,427.3,110.1,408.3,110.1 M408.3,30.4c-36.6,0-51.4,24.3-51.4,48.8c0,36.6,26.3,49,51.4,49s51.4-12.5,51.4-49
			C459.8,54.6,444.9,30.4,408.3,30.4"/>
		<path class="st0" d="M293.5,47.5c15.2,0,25.8,5.8,29,21.3h-57.2C269.6,51.2,282.4,47.5,293.5,47.5 M294.9,111.2c-26.1-1-29.4-20.2-30.2-26
			h80.4c0-33.1-16.6-54.5-51.1-54.8c-33.8,0-50.9,22.7-50.9,48.7c0,28.7,19.6,49.2,52.4,49.2c34,0,46.3-23.1,47.8-30.6h-23.2
			C317.1,104.8,308.2,111.2,294.9,111.2"/>
	</g>
	<polygon class="st0" points="1,1 1,22 52.8,22 52.8,125.2 74,125.2 74,22 126.1,22 126.1,1 	"/>
	<g>
		<path class="st0" d="M138,125.2h21.2V62c5.3-6.5,12.1-13.5,29-13.5c14.2,0,19.6,7.7,19.6,25.8v50.9H229V66.4c0-28-16.7-36-35.9-36
			c-18.6,0-28,8-34,14.5V1H138V125.2z"/>
	</g>
</g>
</svg>
